<svg width="6" height="283" viewBox="0 0 6 283" fill="none" xmlns="http://www.w3.org/2000/svg">
<path d="M-1.0252e-05 2.66669C-1.0252e-05 4.13945 1.1939 5.33335 2.66666 5.33335C4.13942 5.33335 5.33332 4.13945 5.33332 2.66669C5.33332 1.19393 4.13942 2.02656e-05 2.66666 2.02656e-05C1.1939 2.02656e-05 -1.0252e-05 1.19393 -1.0252e-05 2.66669ZM2.66666 2.66669H2.16666V3.16669H2.66666H3.16666V2.66669H2.66666ZM2.66666 7.16669H2.16666V8.16669H2.66666H3.16666V7.16669H2.66666ZM2.66666 12.1667H2.16666V13.1667H2.66666H3.16666V12.1667H2.66666ZM2.66666 17.1667H2.16666V18.1667H2.66666H3.16666V17.1667H2.66666ZM2.66666 22.1667H2.16666V23.1667H2.66666H3.16666V22.1667H2.66666ZM2.66666 27.1667H2.16666V28.1667H2.66666H3.16666V27.1667H2.66666ZM2.66666 32.1667H2.16666V33.1667H2.66666H3.16666V32.1667H2.66666ZM2.66666 37.1667H2.16666V38.1667H2.66666H3.16666V37.1667H2.66666ZM2.66666 42.1667H2.16666V43.1667H2.66666H3.16666V42.1667H2.66666ZM2.66666 47.1667H2.16666V48.1667H2.66666H3.16666V47.1667H2.66666ZM2.66666 52.1667H2.16666V53.1667H2.66666H3.16666V52.1667H2.66666ZM2.66666 57.1667H2.16666V58.1667H2.66666H3.16666V57.1667H2.66666ZM2.66666 62.1667H2.16666V63.1667H2.66666H3.16666V62.1667H2.66666ZM2.66666 67.1667H2.16666V68.1667H2.66666H3.16666V67.1667H2.66666ZM2.66666 72.1667H2.16666V73.1667H2.66666H3.16666V72.1667H2.66666ZM2.66666 77.1667H2.16666V78.1667H2.66666H3.16666V77.1667H2.66666ZM2.66666 82.1667H2.16666V83.1667H2.66666H3.16666V82.1667H2.66666ZM2.66666 87.1667H2.16666V88.1667H2.66666H3.16666V87.1667H2.66666ZM2.66666 92.1667H2.16666V93.1667H2.66666H3.16666V92.1667H2.66666ZM2.66666 97.1667H2.16666V98.1667H2.66666H3.16666V97.1667H2.66666ZM2.66666 102.167H2.16666V103.167H2.66666H3.16666V102.167H2.66666ZM2.66666 107.167H2.16666V108.167H2.66666H3.16666V107.167H2.66666ZM2.66666 112.167H2.16666V113.167H2.66666H3.16666V112.167H2.66666ZM2.66666 117.167H2.16666V118.167H2.66666H3.16666V117.167H2.66666ZM2.66666 122.167H2.16666V123.167H2.66666H3.16666V122.167H2.66666ZM2.66666 127.167H2.16666V128.167H2.66666H3.16666V127.167H2.66666ZM2.66666 132.167H2.16666V133.167H2.66666H3.16666V132.167H2.66666ZM2.66666 137.167H2.16666V138.167H2.66666H3.16666V137.167H2.66666ZM2.66666 142.167H2.16666V143.167H2.66666H3.16666V142.167H2.66666ZM2.66666 147.167H2.16666V148.167H2.66666H3.16666V147.167H2.66666ZM2.66666 152.167H2.16666V153.167H2.66666H3.16666V152.167H2.66666ZM2.66666 157.167H2.16666V158.167H2.66666H3.16666V157.167H2.66666ZM2.66666 162.167H2.16666V163.167H2.66666H3.16666V162.167H2.66666ZM2.66666 167.167H2.16666V168.167H2.66666H3.16666V167.167H2.66666ZM2.66666 172.167H2.16666V173.167H2.66666H3.16666V172.167H2.66666ZM2.66666 177.167H2.16666V178.167H2.66666H3.16666V177.167H2.66666ZM2.66666 182.167H2.16666V183.167H2.66666H3.16666V182.167H2.66666ZM2.66666 187.167H2.16666V188.167H2.66666H3.16666V187.167H2.66666ZM2.66666 192.167H2.16666V193.167H2.66666H3.16666V192.167H2.66666ZM2.66666 197.167H2.16666V198.167H2.66666H3.16666V197.167H2.66666ZM2.66666 202.167H2.16666V203.167H2.66666H3.16666V202.167H2.66666ZM2.66666 207.167H2.16666V208.167H2.66666H3.16666V207.167H2.66666ZM2.66666 212.167H2.16666V213.167H2.66666H3.16666V212.167H2.66666ZM2.66666 217.167H2.16666V218.167H2.66666H3.16666V217.167H2.66666ZM2.66666 222.167H2.16666V223.167H2.66666H3.16666V222.167H2.66666ZM2.66666 227.167H2.16666V228.167H2.66666H3.16666V227.167H2.66666ZM2.66666 232.167H2.16666V233.167H2.66666H3.16666V232.167H2.66666ZM2.66666 237.167H2.16666V238.167H2.66666H3.16666V237.167H2.66666ZM2.66666 242.167H2.16666V243.167H2.66666H3.16666V242.167H2.66666ZM2.66666 247.167H2.16666V248.167H2.66666H3.16666V247.167H2.66666ZM2.66666 252.167H2.16666V253.167H2.66666H3.16666V252.167H2.66666ZM2.66666 257.167H2.16666V258.167H2.66666H3.16666V257.167H2.66666ZM2.66666 262.167H2.16666V263.167H2.66666H3.16666V262.167H2.66666ZM2.66666 267.167H2.16666V268.167H2.66666H3.16666V267.167H2.66666ZM2.66666 272.167H2.16666V273.167H2.66666H3.16666V272.167H2.66666ZM2.66666 277.167H2.16666V278.167H2.66666H3.16666V277.167H2.66666ZM2.66666 282.167H2.16666V282.667H2.66666H3.16666V282.167H2.66666Z" fill="#181B16"/>
</svg>
