<svg width="6" height="43" viewBox="0 0 6 43" fill="none" xmlns="http://www.w3.org/2000/svg">
<path d="M-7.15256e-07 2.66675C-7.15256e-07 4.13951 1.19391 5.33341 2.66667 5.33341C4.13943 5.33341 5.33333 4.13951 5.33333 2.66675C5.33333 1.19399 4.13943 8.13007e-05 2.66667 8.13007e-05C1.19391 8.13007e-05 -7.15256e-07 1.19399 -7.15256e-07 2.66675ZM2.66667 2.66675H2.16667V3.16675H2.66667H3.16667V2.66675H2.66667ZM2.66667 7.16675H2.16667V8.16675H2.66667H3.16667V7.16675H2.66667ZM2.66667 12.1667H2.16667V13.1667H2.66667H3.16667V12.1667H2.66667ZM2.66667 17.1667H2.16667V18.1667H2.66667H3.16667V17.1667H2.66667ZM2.66667 22.1667H2.16667V23.1667H2.66667H3.16667V22.1667H2.66667ZM2.66667 27.1667H2.16667V28.1667H2.66667H3.16667V27.1667H2.66667ZM2.66667 32.1667H2.16667V33.1667H2.66667H3.16667V32.1667H2.66667ZM2.66667 37.1667H2.16667V38.1667H2.66667H3.16667V37.1667H2.66667ZM2.66667 42.1667H2.16667V42.6667H2.66667H3.16667V42.1667H2.66667Z" fill="#181B16"/>
</svg>
